<?xml version="1.0" encoding="utf-8"?>
<!-- Generator: Adobe Illustrator 21.0.0, SVG Export Plug-In . SVG Version: 6.00 Build 0)  -->
<svg version="1.1" id="Layer_1" xmlns="http://www.w3.org/2000/svg" xmlns:xlink="http://www.w3.org/1999/xlink" x="0px" y="0px"
	 viewBox="0 0 99.1 98" style="enable-background:new 0 0 99.1 98;" xml:space="preserve">
<style type="text/css">
	.st0{fill:url(#SVGID_1_);}
	.st1{fill:url(#SVGID_2_);}
	.st2{fill:url(#SVGID_3_);}
	.st3{fill:url(#SVGID_4_);}
	.st4{fill:url(#SVGID_5_);}
	.st5{fill:url(#SVGID_6_);}
	.st6{fill:url(#SVGID_7_);}
	.st7{fill:url(#SVGID_8_);}
</style>
<g>
	<g>
		<linearGradient id="SVGID_1_" gradientUnits="userSpaceOnUse" x1="114.531" y1="38.3687" x2="42.3733" y2="102.9859">
			<stop  offset="5.025126e-03" style="stop-color:#00EAFF"/>
			<stop  offset="1" style="stop-color:#B64BE3"/>
		</linearGradient>
		<path class="st0" d="M62.9,85.7c-2.2-0.6-3-1.3-3.1-1.6c0.2-0.2,0.8-0.7,2.4-1c2,0.2,3.9,0.3,5.6,0.4
			C66.2,84.3,64.6,85.1,62.9,85.7z"/>
		<linearGradient id="SVGID_2_" gradientUnits="userSpaceOnUse" x1="103.4332" y1="25.9758" x2="31.2755" y2="90.593">
			<stop  offset="5.025126e-03" style="stop-color:#00EAFF"/>
			<stop  offset="1" style="stop-color:#B64BE3"/>
		</linearGradient>
		<path class="st1" d="M88.5,51.7c0,0,4.6-10.1,4-21.1l-1.1-6.2l-0.3,5.4v7.8l-2,8.1l-2.3,7.1L88.5,51.7z"/>
		<linearGradient id="SVGID_3_" gradientUnits="userSpaceOnUse" x1="84.906" y1="5.2865" x2="12.7482" y2="69.9037">
			<stop  offset="5.025126e-03" style="stop-color:#00EAFF"/>
			<stop  offset="1" style="stop-color:#B64BE3"/>
		</linearGradient>
		<path class="st2" d="M34.3,74.8c0.7-1.9,1.6-3.7,2.5-5.5c1-2,2.2-3.8,3.4-5.7c1.4-2.1,2.7-4.2,4.2-6.2C34.3,27,55.3,4,55.3,4
			C46.2,2.1,21.2,3.5,8.5,26.3C-4.4,49.1,7,73.5,7,73.5C0.6,45.9,24.4,29.9,24.4,29.9c-0.2,0.5-0.4,1-0.5,1.5c-1,3-1.5,6.1-1.5,9.3
			c0.1,2.5,0.4,4.9,0.4,7.4c0.1,2.3-0.2,4.7-1.2,6.7c-1.1,2.1-2.8,3.7-4.7,5.2c-2.4,1.8-5.2,3.4-8,4.6c2.1,5,5.1,9.6,8.6,13.6
			c3.1,3.6,6.8,6.8,10.8,9.5c2.9,2,6,3.7,9.2,5.3c1,0.4,2,0.9,2.9,1.2c0.1,0.1,1.3,0.5,1.3,0.5c0.1-0.1-0.5-0.7-0.6-0.7
			c-0.2-0.3-0.4-0.5-0.6-0.8c-0.4-0.5-0.8-1-1.1-1.5c-0.7-1-1.4-2-2-3c-1.6-2.7-2.9-5.6-3.5-8.7c-0.2-0.9-0.4-1.9-0.3-2.9
			C33.8,76.2,34,75.5,34.3,74.8z"/>
		<linearGradient id="SVGID_4_" gradientUnits="userSpaceOnUse" x1="99.1665" y1="21.2112" x2="27.0087" y2="85.8283">
			<stop  offset="5.025126e-03" style="stop-color:#00EAFF"/>
			<stop  offset="1" style="stop-color:#B64BE3"/>
		</linearGradient>
		<path class="st3" d="M78.6,61.6c0.6-3.7-0.7-8.1-0.7-8.1c8.3-19.3,6.5-32.9,6.5-32.9c-6.7-9.8-20-14.8-20-14.8
			C44.7,29.3,53.1,53.7,53.1,53.7c1-20.1,12.7-14.9,11.2-6.2c-1.4,8.7-5.2,9.9-11.7,16.1s-9.2,14-9.2,16.6s2.9,9.1,8.9,14.3
			C66.4,95.7,75.4,88,75.4,88c-18.1,2.1-21.8-5.4-13.4-7c18.6,1.5,22.6-0.2,22.6-0.2c25-29.3,3.7-65.3,3.7-65.3
			C96.2,44.1,78.6,61.6,78.6,61.6z M55.3,35.9c0,0,1.6-14.1,10.5-24.2c0,0,8.3,2.1,13.8,9.8c0,0-7.5,9.9-10.9,24.7
			c1.2-14,5.6-23,5.6-23c-4.1-4.9-8.5-5.7-8.5-5.7C58.3,25.2,55.3,35.9,55.3,35.9z M92.3,30.8l-0.5-0.5l-0.1,0.8v-2.9L92.3,30.8z"/>
		<g>
			<linearGradient id="SVGID_5_" gradientUnits="userSpaceOnUse" x1="38.3691" y1="93.9536" x2="72.1278" y2="56.8306">
				<stop  offset="0" style="stop-color:#522266"/>
				<stop  offset="0.995" style="stop-color:#008A96"/>
			</linearGradient>
			<path class="st4" d="M80.5,56c-0.2-1-0.3-1.8-0.4-2.3c3.4-8.1,5.1-15.2,5.9-20.5c0.7,1.7,1.2,3.4,1.7,5.2
				c-0.6,3.5-1.6,6.9-3,10.1C83.3,51.6,81.8,54.1,80.5,56z"/>
			<linearGradient id="SVGID_6_" gradientUnits="userSpaceOnUse" x1="21.648" y1="78.7479" x2="55.4067" y2="41.6249">
				<stop  offset="0" style="stop-color:#522266"/>
				<stop  offset="0.995" style="stop-color:#008A96"/>
			</linearGradient>
			<path class="st5" d="M44.2,87.9c-0.3-0.1-0.7-0.1-1-0.2c-1.5-0.2-2.9-0.5-4.3-0.9c-1.5-2.6-2.4-5.1-2.9-7.4
				c-0.2-0.9-0.3-1.6-0.2-2.2c0.1-0.5,0.2-1,0.4-1.8c0.7-1.8,1.6-3.6,2.4-5.2c0.9-1.7,2-3.5,3.3-5.5c1.5-2.3,2.8-4.3,4.1-6.2
				l0.6-0.8l-0.3-1c-5-15-1.8-28.2,1.6-36.6c1.5-3.5,3.3-6.8,5.3-10c1.1,0.1,2.2,0.2,3.3,0.3c0.6,0.1,1.2,0.2,1.8,0.3
				c-6.8,10.6-8.7,20.9-9,27.8c-0.4,9.3,1.7,15.6,1.8,15.9l2.1,5.9c-0.7,0.6-1.4,1.2-2.1,1.9c-6.7,6.4-9.8,14.5-9.8,18
				C41.4,82.1,42.5,85,44.2,87.9z"/>
			<linearGradient id="SVGID_7_" gradientUnits="userSpaceOnUse" x1="4.0332" y1="62.7294" x2="37.7919" y2="25.6064">
				<stop  offset="0" style="stop-color:#522266"/>
				<stop  offset="0.995" style="stop-color:#008A96"/>
			</linearGradient>
			<path class="st6" d="M12.7,59.2c-0.4-1.4-0.7-2.9-0.9-4.4c-0.2-1.6-0.4-3.3-0.4-4.9c1-2.3,2.2-4.5,3.7-6.7
				c1.7-2.5,3.5-4.6,5.2-6.1c-0.2,1.5-0.3,3-0.3,4.5c0,1.2,0.1,2.4,0.2,3.5c0.1,1,0.2,2,0.2,3c0.1,2.1-0.2,3.7-0.9,5.1
				c-0.7,1.4-1.9,2.7-3.6,4C14.8,57.9,13.7,58.6,12.7,59.2z"/>
			<linearGradient id="SVGID_8_" gradientUnits="userSpaceOnUse" x1="27.2156" y1="83.8109" x2="60.9743" y2="46.6879">
				<stop  offset="0" style="stop-color:#522266"/>
				<stop  offset="0.995" style="stop-color:#008A96"/>
			</linearGradient>
			<path class="st7" d="M56.2,52.7c0.3-6.4,2.2-8,3.1-8c0.4,0,0.7,0.2,1,0.6c0.6,0.7,0.9,1.8,0.7,3c-0.7,4.1-2.1,5.3-4.8,7.7
				c-0.1,0.1-0.2,0.1-0.2,0.2L56.2,52.7z"/>
		</g>
	</g>
</g>
</svg>
